<?xml version="1.0" encoding="utf-8"?>
<!-- Generator: Adobe Illustrator 16.0.0, SVG Export Plug-In . SVG Version: 6.00 Build 0)  -->
<!DOCTYPE svg PUBLIC "-//W3C//DTD SVG 1.1//EN" "http://www.w3.org/Graphics/SVG/1.1/DTD/svg11.dtd">
<svg version="1.1" id="Layer_1" xmlns="http://www.w3.org/2000/svg" xmlns:xlink="http://www.w3.org/1999/xlink" x="0px" y="0px"
	 width="103px" height="103px" viewBox="0 0 103 103" enable-background="new 0 0 103 103" xml:space="preserve">
<rect x="-28.876" y="-22.705" fill-rule="evenodd" clip-rule="evenodd" fill="#FFFFFF" width="160.876" height="155.146" opacity="0"/>
<path fill-rule="evenodd" clip-rule="evenodd" fill="#f2f2f2" d="M25.062,25.965c11.286-11.646,28.711-14.499,43.051-7.302
	c14.332,7.192,22.276,22.699,19.951,38.39c-2.331,15.724-14.392,28.061-29.866,30.889c-15.828,2.895-31.584-4.793-39.128-18.81
	C11.409,54.899,13.931,37.452,25.062,25.965L25.062,25.965z M53.721,0.676l-2.819,0.953l-0.867-0.412l0.554-0.576
	c-3.465,0.064-6.846,0.476-10.109,1.198l-2.5,1.665L37.036,3.33l0.395-0.716c-3.305,0.951-6.472,2.228-9.465,3.792L25.983,8.66
	l-0.957,0.076l0.194-0.786c-2.929,1.771-5.666,3.826-8.171,6.13l-1.319,2.664l-0.904,0.322l-0.016-0.799
	c-2.356,2.447-4.47,5.129-6.304,8.008l-0.587,2.932l-0.791,0.545l-0.226-0.779c-1.634,2.952-2.985,6.084-4.014,9.357l0.193,3.006
	l-0.623,0.73l-0.421-0.699c-0.806,3.26-1.297,6.643-1.442,10.115l0.953,2.82l-0.412,0.866l-0.576-0.554
	c0.065,3.465,0.475,6.846,1.198,10.109l1.666,2.5L3.25,66.168l-0.716-0.395c0.951,3.305,2.227,6.472,3.791,9.465l2.254,1.982
	l0.076,0.957L7.87,77.982c1.77,2.93,3.826,5.666,6.13,8.172l2.665,1.318l0.321,0.905l-0.798,0.016
	c2.447,2.356,5.129,4.47,8.007,6.304l2.933,0.588l0.544,0.79l-0.779,0.226c2.952,1.635,6.083,2.984,9.357,4.014l3.006-0.193
	l0.73,0.623l-0.699,0.422c3.26,0.805,6.643,1.297,10.116,1.441l2.819-0.952l0.867,0.412l-0.554,0.575
	c3.465-0.064,6.846-0.475,10.109-1.197l2.5-1.666l0.944,0.175l-0.395,0.716c3.304-0.951,6.472-2.227,9.464-3.791l1.982-2.254
	l0.957-0.076l-0.194,0.785c2.929-1.77,5.666-3.826,8.172-6.131l1.318-2.664l0.905-0.32l0.016,0.797
	c2.356-2.446,4.47-5.128,6.303-8.006l0.588-2.934l0.791-0.543l0.225,0.779c1.635-2.953,2.985-6.084,4.014-9.357l-0.193-3.006
	l0.623-0.73l0.422,0.697c0.805-3.259,1.296-6.643,1.441-10.115l-0.953-2.818l0.413-0.867l0.576,0.554
	c-0.064-3.466-0.475-6.846-1.198-10.108l-1.666-2.5l0.174-0.944l0.716,0.395c-0.951-3.305-2.227-6.472-3.792-9.464l-2.254-1.982
	l-0.076-0.957l0.785,0.193c-1.77-2.93-3.826-5.666-6.129-8.172l-2.665-1.318l-0.321-0.904l0.798-0.016
	c-2.447-2.355-5.129-4.471-8.007-6.304L75.997,8l-0.544-0.791l0.78-0.226c-2.953-1.634-6.084-2.985-9.358-4.014l-3.006,0.192
	l-0.73-0.623l0.698-0.421C60.577,1.312,57.194,0.821,53.721,0.676L53.721,0.676z M78.944,24.26
	c-7.007-7.007-16.688-11.341-27.382-11.341S31.187,17.253,24.18,24.26c-7.007,7.008-11.342,16.688-11.342,27.383
	c0,10.693,4.334,20.374,11.342,27.381c7.007,7.008,16.688,11.342,27.382,11.342s20.375-4.334,27.382-11.342
	c7.007-7.007,11.341-16.688,11.341-27.381C90.285,40.948,85.951,31.268,78.944,24.26L78.944,24.26z M42.081,47.27
	c-1.002,0-1.815,0.812-1.815,1.814s0.812,1.814,1.815,1.814c1.002,0,1.814-0.812,1.814-1.814S43.083,47.27,42.081,47.27
	L42.081,47.27z M44.25,59.096c-0.338,0.943,0.153,1.982,1.097,2.32c0.943,0.337,1.982-0.154,2.32-1.098s-0.154-1.982-1.097-2.32
	C45.626,57.66,44.588,58.152,44.25,59.096L44.25,59.096z M56.438,60.875c0.796,0.608,1.935,0.457,2.543-0.34
	c0.609-0.796,0.457-1.935-0.339-2.543c-0.795-0.609-1.935-0.457-2.543,0.339C55.49,59.127,55.641,60.266,56.438,60.875
	L56.438,60.875z M61.901,50.186c0.842-0.542,1.086-1.665,0.543-2.508c-0.542-0.842-1.666-1.086-2.508-0.543
	c-0.843,0.543-1.086,1.666-0.543,2.508C59.935,50.485,61.058,50.729,61.901,50.186L61.901,50.186z M53.055,41.309
	c-0.285-0.961-1.295-1.508-2.256-1.223c-0.96,0.285-1.508,1.295-1.223,2.256s1.295,1.508,2.256,1.223
	C52.793,43.279,53.341,42.27,53.055,41.309L53.055,41.309z M51.562,46.469c-1.429,0-2.722,0.579-3.658,1.516
	c-0.936,0.936-1.515,2.229-1.515,3.658c0,1.428,0.579,2.721,1.515,3.658c0.936,0.936,2.229,1.515,3.658,1.515
	s2.722-0.579,3.658-1.515c0.936-0.938,1.515-2.23,1.515-3.658c0-1.43-0.579-2.723-1.515-3.658
	C54.284,47.048,52.99,46.469,51.562,46.469L51.562,46.469z M54.338,48.866c-0.71-0.71-1.692-1.149-2.776-1.149
	s-2.066,0.439-2.776,1.149c-0.71,0.71-1.15,1.692-1.15,2.776s0.439,2.064,1.15,2.775c0.71,0.711,1.692,1.15,2.776,1.15
	s2.065-0.439,2.776-1.15s1.15-1.691,1.15-2.775S55.048,49.576,54.338,48.866L54.338,48.866z M37.494,52.484
	c-1.047-0.613-4.515-1.576-5.869-1.982l-14.052-4.218c-1.21,7.618,0.211,15.196,3.693,21.665c1.806,3.355,4.166,6.41,6.998,9.021
	l9.965-14.304c1.218-1.748,2.385-3.051,2.308-5.275C40.465,55.35,39.383,53.59,37.494,52.484L37.494,52.484z M48.031,65.287
	c-0.905,0.807-2.889,3.811-3.693,4.974l-8.339,12.07c6.875,3.497,14.523,4.478,21.75,3.156c3.748-0.685,7.381-1.989,10.736-3.88
	L57.944,67.723c-1.289-1.697-2.168-3.209-4.308-3.82C51.672,63.342,49.665,63.83,48.031,65.287L48.031,65.287z M63.341,59.381
	c0.473,1.117,2.678,3.962,3.52,5.098l8.741,11.782c5.526-5.382,8.917-12.307,9.994-19.573c0.559-3.77,0.494-7.629-0.216-11.414
	l-16.54,5.506c-2.022,0.674-3.736,1.02-5.003,2.849C62.673,55.307,62.488,57.365,63.341,59.381L63.341,59.381z M62.594,42.874
	c1.209-0.101,4.601-1.304,5.943-1.749l13.925-4.619c-3.385-6.932-8.902-12.318-15.468-15.613c-3.405-1.709-7.091-2.854-10.909-3.363
	l0.06,17.433c0.007,2.13-0.2,3.866,1.141,5.643C58.516,42.234,60.413,43.053,62.594,42.874L62.594,42.874z M46.504,38.489
	c0.268-1.183,0.135-4.78,0.113-6.194l-0.231-14.668c-7.628,1.15-14.42,4.799-19.532,10.074c-2.651,2.736-4.85,5.91-6.48,9.4
	l16.648,5.169c2.035,0.632,3.629,1.351,5.725,0.604C44.671,42.188,46.021,40.625,46.504,38.489z"/>
</svg>
