<svg xmlns="http://www.w3.org/2000/svg" viewBox="0 0 78 16.8" width="180" height="38.77"><title></title><g><path fill="#ffffff" fill-rule="evenodd" clip-rule="evenodd" d="M19.2 15h1.3V2.2h-1.3V15zm7-9.1c-1.7 0-2.7.3-3.2.9-.5.6-.7 1.8-.7 3.8 0 1.9.2 3.2.7 3.8.5.6 1.6.9 3.2.9 1.7 0 2.7-.3 3.2-.9.5-.6.7-1.8.7-3.8 0-1.9-.2-3.2-.7-3.8-.5-.6-1.6-.9-3.2-.9zm2.2 7.5c-.3.4-1 .6-2.2.6-1.2 0-1.9-.2-2.2-.6-.3-.4-.4-1.4-.4-3s.1-2.6.4-3c.3-.3 1-.4 2.2-.4 1.2 0 1.9.2 2.2.6.3.4.4 1.4.4 3s-.2 2.5-.4 2.8zm9.7-1.7c0 1-.1 1.6-.4 1.9-.3.3-.9.4-1.9.4-1.2 0-1.9-.2-2.3-.6-.3-.4-.5-1.4-.5-2.8 0-1.5.1-2.5.4-2.9.3-.5 1-.7 1.9-.7 1 0 1.7.1 2.1.3.3.2.5.7.5 1.4v.2h1.3c0-1.2-.3-2-.8-2.4-.5-.4-1.5-.6-3-.6s-2.5.3-3 1c-.5.6-.8 1.8-.8 3.6 0 1.9.3 3.1.8 3.8.5.6 1.6.9 3.2.9 2.5 0 3.8-1 3.8-2.9v-.5h-1.3zM47.7 6H46l-3.2 3.6h-.6V2.2h-1.3V15h1.3v-4.3h.5l3.8 4.3h1.8l-4.5-4.8L47.7 6zm2-1.3V6h-1.4v1.1h1.4V15H51V7.1h2.3V6H51V4.6c0-.9.5-1.4 1.4-1.4.2 0 .5 0 .9.1V2.1c-.3 0-.6-.1-.9-.1-1.8 0-2.7.9-2.7 2.7zm8.2 1.2c-1.7 0-2.7.3-3.2.9-.5.6-.7 1.8-.7 3.8 0 1.9.2 3.2.7 3.8.5.6 1.6.9 3.2.9 1.7 0 2.7-.3 3.2-.9.5-.6.7-1.8.7-3.8 0-1.9-.2-3.2-.7-3.8-.5-.6-1.6-.9-3.2-.9zm2.2 7.5c-.3.4-1 .6-2.2.6-1.2 0-1.9-.2-2.2-.6-.3-.4-.4-1.4-.4-3s.1-2.6.4-3c.3-.3 1-.4 2.2-.4 1.2 0 1.9.2 2.2.6.3.4.4 1.4.4 3s-.2 2.5-.4 2.8zm3.5 1.6h1.3V2.2h-1.3V15zm3.3 0h1.3V6h-1.3v9zm0-11.4h1.3V2.2h-1.3v1.4zm10.3 3.1c-.5-.6-1.6-.9-3.2-.9s-2.7.3-3.2.9c-.5.6-.8 1.9-.8 3.8s.2 3.2.7 3.8c.5.6 1.6.9 3.2.9 1.7 0 2.7-.3 3.2-.9.5-.6.7-1.8.7-3.8.1-1.9-.1-3.2-.6-3.8zm-1.1 6.7c-.3.4-1 .6-2.2.6-1.2 0-1.9-.2-2.2-.6-.3-.4-.4-1.4-.4-3s.1-2.6.4-3c.4-.3 1.1-.4 2.3-.4 1.2 0 1.9.2 2.2.6.3.4.4 1.4.4 3s-.2 2.5-.5 2.8z"></path><path fill="#ffffff" fill-rule="evenodd" clip-rule="evenodd" d="M15.4.2h-14C.7.2.2.7.2 1.4v13.9c0 .7.5 1.2 1.2 1.2h13.9c.7 0 1.2-.5 1.2-1.2V1.4C16.6.8 16 .2 15.4.2z"></path><path fill="#000000" fill-rule="evenodd" clip-rule="evenodd" d="M13.4 10.9v-.3c0-.2-.1-.4-.2-.6-.2-.4-.4-.8-.8-1.1-.2-.1-.3-.3-.5-.3-.2-.1-.4-.2-.6-.2h-.1c.1-.1.2-.1.4-.2.3-.2.6-.4.8-.7.4-.5.6-1 .6-1.6v-.7c0-.2-.1-.5-.2-.7-.2-.4-.4-.8-.8-1.1-.3-.2-.6-.4-1-.6-.3-.1-.7-.2-1-.3-.2 0-.5-.1-.8-.1H4.4h-.1v12.2h5.6c.3 0 .6-.1.8-.1.5-.1 1-.3 1.5-.7.5-.3.8-.8 1-1.4.1-.4.2-.8.2-1.3v-.2zM6.8 4.3h1.8c.3 0 .6 0 .9.1.3.1.5.2.7.4.1.2.2.3.3.5 0 .2.1.3.1.5 0 .3 0 .6-.2.8-.1.2-.3.4-.5.5-.3.3-.5.3-.8.4H6.8V4.3zm4.2 7c0 .3-.1.6-.3.9-.1.2-.3.3-.5.4-.2.1-.4.2-.7.2H6.8V9.3h2.5c.3 0 .5 0 .7.1l.6.3c.1.1.2.3.3.5.1.2.1.5.2.7-.1.1-.1.2-.1.4z"></path></g></svg>